<?xml version="1.0" encoding="UTF-8"?>
<svg width="24px" height="24px" viewBox="0 0 24 24" version="1.1" xmlns="http://www.w3.org/2000/svg">
    <g stroke="none" stroke-width="1" fill="none" fill-rule="evenodd">
        <path d="M12,2 C17.5228475,2 22,6.4771525 22,12 C22,17.5228475 17.5228475,22 12,22 C6.4771525,22 2,17.5228475 2,12 C2,6.4771525 6.4771525,2 12,2 Z M12,4 C7.581722,4 4,7.581722 4,12 C4,16.418278 7.581722,20 12,20 C16.418278,20 20,16.418278 20,12 C20,7.581722 16.418278,4 12,4 Z" fill="#4285F4"/>
        <path d="M12,8.4 L15.2,8.4 C15.6418278,8.4 16,8.7581722 16,9.2 L16,14.8 C16,15.2418278 15.6418278,15.6 15.2,15.6 L8.8,15.6 C8.3581722,15.6 8,15.2418278 8,14.8 L8,9.2 C8,8.7581722 8.3581722,8.4 8.8,8.4 L12,8.4 Z" fill="#4285F4"/>
    </g>
</svg> 